<svg width="281" height="281" viewBox="0 0 281 281" fill="none" xmlns="http://www.w3.org/2000/svg">
<path fill-rule="evenodd" clip-rule="evenodd" d="M237.562 81.964L172.464 33.8427C153.422 19.9413 127.578 19.9413 108.536 33.8427L43.5548 81.964C30.9736 91.0278 23.488 105.564 23.4165 121.07V208.063C24.1193 236.084 47.3793 258.244 75.4015 257.589H205.598C233.62 258.244 256.88 236.084 257.583 208.063V120.953C257.483 105.514 250.051 91.0413 237.562 81.964ZM240.021 208.063C239.322 226.386 223.923 240.686 205.598 240.027H75.4017C57.1013 240.621 41.7405 226.357 40.9792 208.063V121.07C41.0416 111.117 45.8752 101.798 53.9754 96.0142L118.957 48.01C131.79 38.6384 149.21 38.6384 162.043 48.01L227.025 96.1313C235.118 101.815 239.96 111.064 240.021 120.953V208.063ZM87.8125 184.412H193.188C198.037 184.412 201.969 188.343 201.969 193.193C201.969 198.043 198.037 201.974 193.188 201.974H87.8125C82.9627 201.974 79.0312 198.043 79.0312 193.193C79.0312 188.343 82.9627 184.412 87.8125 184.412Z" fill="#6E6E6E"/>
</svg>
