<svg width="56" height="56" viewBox="0 0 56 56" fill="none" xmlns="http://www.w3.org/2000/svg">
<circle cx="28" cy="28" r="28" fill="#F4F7FE"/>
<g clip-path="url(#clip0_10_7086)">
<path d="M28 28C31.0387 28 33.5 25.5387 33.5 22.5C33.5 19.4612 31.0387 17 28 17C24.9612 17 22.5 19.4612 22.5 22.5C22.5 25.5387 24.9612 28 28 28ZM28 30.75C24.3287 30.75 17 32.5925 17 36.25V37.625C17 38.3813 17.6187 39 18.375 39H37.625C38.3813 39 39 38.3813 39 37.625V36.25C39 32.5925 31.6713 30.75 28 30.75Z" fill="#546FFF"/>
</g>
<defs>
<clipPath id="clip0_10_7086">
<rect width="26" height="26" fill="white" transform="translate(15 15)"/>
</clipPath>
</defs>
</svg>
