<svg width="391" height="391" viewBox="0 0 391 391" fill="none" xmlns="http://www.w3.org/2000/svg">
<path d="M207.719 122.188V188.582L262.886 221.679C265.665 223.348 267.667 226.052 268.452 229.198C269.237 232.343 268.74 235.671 267.071 238.449C265.402 241.228 262.698 243.23 259.553 244.015C256.408 244.8 253.08 244.303 250.301 242.634L189.207 205.978C187.399 204.892 185.903 203.356 184.865 201.52C183.826 199.684 183.281 197.61 183.281 195.5V122.188C183.281 118.947 184.569 115.839 186.86 113.548C189.152 111.257 192.259 109.969 195.5 109.969C198.741 109.969 201.849 111.257 204.14 113.548C206.431 115.839 207.719 118.947 207.719 122.188ZM195.5 48.8755C176.225 48.8274 157.132 52.6027 139.325 59.9827C121.519 67.3627 105.353 78.201 91.7628 91.8702C80.659 103.111 70.7924 113.925 61.0938 125.243V97.7505C61.0938 94.5098 59.8064 91.402 57.515 89.1105C55.2235 86.819 52.1156 85.5317 48.875 85.5317C45.6344 85.5317 42.5265 86.819 40.235 89.1105C37.9436 91.402 36.6563 94.5098 36.6562 97.7505V158.844C36.6563 162.085 37.9436 165.193 40.235 167.484C42.5265 169.776 45.6344 171.063 48.875 171.063H109.969C113.209 171.063 116.317 169.776 118.609 167.484C120.9 165.193 122.188 162.085 122.188 158.844C122.188 155.604 120.9 152.496 118.609 150.204C116.317 147.913 113.209 146.625 109.969 146.625H74.8398C85.7604 133.765 96.635 121.653 109.037 109.099C126.019 92.1169 147.629 80.516 171.166 75.7457C194.703 70.9753 219.124 73.2469 241.378 82.2767C263.632 91.3065 282.731 106.694 296.289 126.517C309.848 146.339 317.264 169.718 317.611 193.731C317.959 217.744 311.222 241.328 298.243 261.534C285.263 281.741 266.617 297.674 244.634 307.344C222.651 317.014 198.306 319.991 174.64 315.903C150.975 311.816 129.038 300.845 111.572 284.361C110.405 283.258 109.032 282.396 107.531 281.823C106.031 281.251 104.432 280.98 102.826 281.025C101.221 281.07 99.6402 281.431 98.1743 282.088C96.7084 282.744 95.3861 283.683 94.2829 284.85C93.1798 286.017 92.3174 287.391 91.7449 288.891C91.1724 290.392 90.9011 291.991 90.9465 293.596C90.9919 295.202 91.3531 296.782 92.0094 298.248C92.6657 299.714 93.6043 301.036 94.7717 302.14C112.175 318.563 133.333 330.477 156.4 336.842C179.467 343.208 203.741 343.831 227.104 338.658C250.467 333.485 272.209 322.672 290.432 307.164C308.655 291.655 322.806 271.923 331.649 249.688C340.493 227.453 343.76 203.391 341.165 179.604C338.571 155.816 330.194 133.024 316.766 113.218C303.338 93.4124 285.266 77.194 264.128 65.9784C242.99 54.7628 219.429 48.891 195.5 48.8755Z" fill="#141522"/>
</svg>
