<svg width="211" height="211" viewBox="0 0 211 211" fill="none" xmlns="http://www.w3.org/2000/svg">
<path d="M211 105.5C211 77.5197 199.885 50.6853 180.1 30.9002C160.315 11.1151 133.48 2.11246e-06 105.5 0C77.5197 -2.11246e-06 50.6853 11.1151 30.9002 30.9002C11.1152 50.6853 4.22491e-06 77.5196 0 105.5L35.87 105.5C35.87 87.033 43.206 69.3223 56.2642 56.2641C69.3223 43.206 87.033 35.87 105.5 35.87C123.967 35.87 141.678 43.206 154.736 56.2642C167.794 69.3223 175.13 87.033 175.13 105.5H211Z" fill="#2B2B36"/>
<path d="M180.1 30.9002C165.345 16.1458 146.547 6.09789 126.082 2.02715C105.617 -2.04359 84.4045 0.0456671 65.1269 8.03071C45.8493 16.0158 29.3724 29.538 17.7799 46.8874C6.18746 64.2367 -3.15067e-06 84.6341 0 105.5L35.87 105.5C35.87 91.7285 39.9537 78.2663 47.6048 66.8157C55.2558 55.3651 66.1305 46.4404 78.8537 41.1703C91.577 35.9001 105.577 34.5212 119.084 37.2079C132.591 39.8946 144.998 46.5262 154.736 56.2641L180.1 30.9002Z" fill="#546FFF"/>
<line x1="144.305" y1="64.574" x2="185.057" y2="23.8219" stroke="#4318FF" stroke-width="3" stroke-linecap="round"/>
<circle cx="105.5" cy="95.6692" r="5.5" fill="#D9D9D9" stroke="black" stroke-width="8.4023"/>
<path d="M103.084 80.0253L110.035 87.897L99.7424 89.9814L103.084 80.0253Z" fill="black"/>
</svg>
