<svg width="23" height="23" viewBox="0 0 23 23" fill="none" xmlns="http://www.w3.org/2000/svg">
<path fill-rule="evenodd" clip-rule="evenodd" d="M19.4444 6.70888L14.1161 2.77013C12.5575 1.63229 10.4422 1.63229 8.88359 2.77013L3.56484 6.70888C2.53505 7.45076 1.92235 8.64053 1.9165 9.90971V17.0301C1.97403 19.3237 3.87787 21.1375 6.1715 21.0839H16.8282C19.1218 21.1375 21.0256 19.3237 21.0832 17.0301V9.90013C21.075 8.63643 20.4667 7.45186 19.4444 6.70888ZM19.6458 17.0301C19.5887 18.5299 18.3282 19.7003 16.8283 19.6464H6.17167C4.67377 19.695 3.41648 18.5275 3.35417 17.0301V9.9097C3.35928 9.09504 3.75491 8.33229 4.41792 7.85887L9.73667 3.9297C10.7871 3.16263 12.2129 3.16263 13.2633 3.9297L18.5821 7.86845C19.2445 8.33365 19.6409 9.09067 19.6458 9.90012V17.0301ZM7.1875 15.0942H15.8125C16.2095 15.0942 16.5312 15.416 16.5312 15.813C16.5312 16.2099 16.2095 16.5317 15.8125 16.5317H7.1875C6.79055 16.5317 6.46875 16.2099 6.46875 15.813C6.46875 15.416 6.79055 15.0942 7.1875 15.0942Z" fill="#6E6E6E"/>
</svg>
