<svg width="221" height="221" viewBox="0 0 221 221" fill="none" xmlns="http://www.w3.org/2000/svg">
<path fill-rule="evenodd" clip-rule="evenodd" d="M180.3 153.871L182.51 164.369C184.604 173.445 182.536 182.981 176.871 190.375C171.206 197.768 162.535 202.245 153.227 202.584H67.774C58.466 202.245 49.7953 197.768 44.1302 190.375C38.465 182.981 36.3972 173.445 38.4915 164.369L40.7015 153.871C43.2433 139.661 55.459 129.218 69.8919 128.917H151.109C165.542 129.218 177.758 139.661 180.3 153.871ZM153.227 188.679C157.903 188.625 162.304 186.458 165.198 182.786V182.878C168.75 178.423 170.133 172.618 168.974 167.039L166.764 156.542C165.537 148.762 158.979 142.937 151.109 142.637H69.8919C62.0222 142.937 55.464 148.762 54.2378 156.542L52.0278 167.039C50.8966 172.588 52.2788 178.353 55.8032 182.786C58.6977 186.458 63.0981 188.625 67.774 188.679H153.227Z" fill="#6E6E6E"/>
<path fill-rule="evenodd" clip-rule="evenodd" d="M115.105 110.5H105.896C85.5538 110.5 69.063 94.0092 69.063 73.6668V49.3568C69.0385 41.1435 72.2903 33.2595 78.098 27.4518C83.9057 21.6441 91.7897 18.3922 100.003 18.4168H120.998C129.211 18.3922 137.095 21.6441 142.903 27.4518C148.711 33.2595 151.963 41.1435 151.938 49.3568V73.6668C151.938 94.0092 135.447 110.5 115.105 110.5ZM100.003 32.2293C90.5438 32.2293 82.8755 39.8975 82.8755 49.3568V73.6668C82.8755 86.3808 93.1823 96.6876 105.896 96.6876H115.105C127.819 96.6876 138.126 86.3808 138.126 73.6668V49.3568C138.126 44.8143 136.321 40.4578 133.109 37.2458C129.897 34.0338 125.541 32.2293 120.998 32.2293H100.003Z" fill="#6E6E6E"/>
</svg>
