<svg width="38" height="38" viewBox="0 0 38 38" fill="none" xmlns="http://www.w3.org/2000/svg">
<path fill-rule="evenodd" clip-rule="evenodd" d="M33.0174 12.9007C33.3824 13.7902 34.2476 14.3722 35.2092 14.375C36.5143 14.3855 37.5667 15.4465 37.5667 16.7517V20.8533C37.5667 22.1659 36.5026 23.23 35.19 23.23C34.2284 23.2328 33.3633 23.8148 32.9982 24.7043C32.6331 25.5939 32.8401 26.6159 33.5225 27.2933C34.438 28.2314 34.438 29.7286 33.5225 30.6667L30.6475 33.5417C29.7094 34.4571 28.2123 34.4571 27.2742 33.5417C26.8415 33.0832 26.237 32.8262 25.6067 32.8325C24.973 32.8274 24.3636 33.0755 23.9137 33.5218C23.4638 33.9681 23.2108 34.5755 23.2108 35.2092C23.2108 36.5218 22.1468 37.5858 20.8342 37.5858H16.7325C15.4199 37.5858 14.3558 36.5218 14.3558 35.2092C14.3559 34.5755 14.1028 33.9681 13.653 33.5218C13.2031 33.0755 12.5936 32.8274 11.96 32.8325C11.3296 32.8262 10.7252 33.0832 10.2925 33.5417C9.35438 34.4571 7.85728 34.4571 6.91917 33.5417L4.04417 30.6667C3.1287 29.7286 3.1287 28.2314 4.04417 27.2933C4.72659 26.6159 4.93355 25.5939 4.56848 24.7043C4.20341 23.8148 3.33825 23.2328 2.37667 23.23C1.74634 23.23 1.14182 22.9796 0.696109 22.5339C0.250398 22.0882 0 21.4837 0 20.8533V16.7517C0 15.4391 1.06407 14.375 2.37667 14.375C3.33825 14.3722 4.20341 13.7902 4.56848 12.9007C4.93355 12.0111 4.72659 10.9891 4.04417 10.3117C3.1287 9.37355 3.1287 7.87645 4.04417 6.93833L6.91917 4.06333C7.85728 3.14787 9.35438 3.14787 10.2925 4.06333C10.7252 4.52179 11.3296 4.77884 11.96 4.7725C12.597 4.77766 13.2094 4.5269 13.6598 4.07647C14.1102 3.62604 14.361 3.01365 14.3558 2.37667C14.3558 1.06407 15.4199 0 16.7325 0H20.8533C22.1659 0 23.23 1.06407 23.23 2.37667C23.2248 3.01365 23.4756 3.62604 23.926 4.07647C24.3765 4.5269 24.9888 4.77766 25.6258 4.7725C26.2562 4.77884 26.8606 4.52179 27.2933 4.06333C28.2314 3.14787 29.7285 3.14787 30.6667 4.06333L33.5417 6.93833C34.4571 7.87645 34.4571 9.37355 33.5417 10.3117C32.8592 10.9891 32.6523 12.0111 33.0174 12.9007ZM30.2833 23.5942C31.0315 21.7699 32.7448 20.5239 34.7108 20.3742L34.6533 17.2308C32.7087 17.0603 31.0223 15.8177 30.2833 14.0108C29.5595 12.1997 29.891 10.1373 31.1458 8.64417L28.9417 6.44C28.007 7.22279 26.8259 7.65042 25.6067 7.6475C22.8905 7.64084 20.6207 5.57818 20.355 2.875H17.2117C16.9545 5.58248 14.6797 7.64979 11.96 7.6475C10.7408 7.65042 9.55972 7.22279 8.625 6.44L6.47833 8.64417C7.71368 10.1487 8.02289 12.2101 7.28333 14.0108C6.5444 15.8177 4.85797 17.0603 2.91333 17.2308V20.3742C4.85797 20.5447 6.5444 21.7873 7.28333 23.5942C8.00714 25.4053 7.67567 27.4677 6.42083 28.9608L8.625 31.165C9.55972 30.3822 10.7408 29.9546 11.96 29.9575C14.6762 29.9642 16.946 32.0268 17.2117 34.73H20.355C20.5946 32.0138 22.88 29.937 25.6067 29.9575C26.8259 29.9546 28.007 30.3822 28.9417 31.165L31.0883 28.9608C29.853 27.4563 29.5438 25.3949 30.2833 23.5942Z" fill="#141522"/>
<path fill-rule="evenodd" clip-rule="evenodd" d="M12.1517 18.8025C12.1517 15.1399 15.1208 12.1708 18.7833 12.1708C20.5422 12.1708 22.229 12.8695 23.4726 14.1132C24.7163 15.3569 25.415 17.0437 25.415 18.8025C25.415 22.4651 22.4459 25.4342 18.7833 25.4342C15.1208 25.4342 12.1517 22.4651 12.1517 18.8025ZM14.95 18.8025C14.95 20.9196 16.6662 22.6358 18.7833 22.6358C20.9004 22.6358 22.6167 20.9196 22.6167 18.8025C22.6167 16.6854 20.9004 14.9692 18.7833 14.9692C16.6662 14.9692 14.95 16.6854 14.95 18.8025Z" fill="#141522"/>
</svg>
