<svg width="1011" height="1011" viewBox="0 0 1011 1011" fill="none" xmlns="http://www.w3.org/2000/svg">
<path d="M682.005 84.2495H328.997C175.662 84.2495 84.251 175.661 84.251 328.996V681.582C84.251 835.338 175.662 926.749 328.997 926.749H681.583C834.918 926.749 926.33 835.338 926.33 682.003V328.996C926.751 175.661 835.34 84.2495 682.005 84.2495ZM484.438 726.656C484.438 741.821 469.273 751.931 455.372 746.033C404.401 724.128 337.843 703.908 291.506 698.011L283.502 697.168C257.806 693.798 236.743 669.787 236.743 643.67V319.307C236.743 286.871 262.861 262.86 294.876 265.387C347.532 269.6 425.463 294.874 474.328 322.677C481.068 326.468 484.438 333.629 484.438 340.791V726.656ZM774.258 643.248C774.258 669.366 753.196 693.377 727.5 696.747L718.653 697.589C672.737 703.908 606.601 723.707 555.63 745.191C541.728 751.088 526.563 740.978 526.563 725.813V340.37C526.563 332.787 530.355 325.626 537.095 321.834C585.96 294.453 662.206 270.021 714.02 265.387H715.705C748.141 265.387 774.258 291.505 774.258 323.941V643.248Z" fill="#546FFF"/>
</svg>
